<?xml version="1.0" encoding="UTF-8"?>
<svg width="24px" height="24px" viewBox="0 0 24 24" version="1.1" xmlns="http://www.w3.org/2000/svg" xmlns:xlink="http://www.w3.org/1999/xlink">
    <!-- Generator: Sketch 47.1 (45422) - http://www.bohemiancoding.com/sketch -->
    <title>calendar</title>
    <desc>Created with Sketch.</desc>
    <defs></defs>
    <g id="ui" stroke="none" stroke-width="1" fill="none" fill-rule="evenodd">
        <g id="z" transform="translate(-240.000000, -476.000000)" fill="#00965E">
            <g id="calendar" transform="translate(240.000000, 476.000000)">
                <path d="M0,-5.68434189e-14 L0,24 L24,24 L24,-5.68434189e-14 L0,-5.68434189e-14 Z M23.004878,0.995121951 L23.004878,5.50243902 L0.995121951,5.50243902 L0.995121951,0.995121951 L23.004878,0.995121951 Z M0.995121951,23.004878 L0.995121951,6.49756098 L23.004878,6.49756098 L23.004878,23.004878 L0.995121951,23.004878 Z M7.49268293,4.03902439 L9.01463415,4.03902439 L9.01463415,2.51707317 L7.49268293,2.51707317 L7.49268293,4.03902439 Z M11.5384615,16.8045028 L11.5384615,12.1891182 L6.92307692,12.1891182 L6.92307692,16.8045028 L11.5384615,16.8045028 Z M11.5384615,17.7275797 L6.92307692,17.7275797 L6.92307692,21.8814259 L6,21.8814259 L6,17.7275797 L0.995121951,17.7275797 L0.995121951,16.8045028 L6,16.8045028 L6,12.1891182 L0.995121951,12.1891182 L0.995121951,11.2660413 L6,11.2660413 L6,7.22026266 L6.92307692,7.22026266 L6.92307692,11.2660413 L11.5384615,11.2660413 L11.5384615,7.22026266 L12.4615385,7.22026266 L12.4615385,11.2660413 L17.0769231,11.2660413 L17.0769231,7.22026266 L18,7.22026266 L18,11.2660413 L23.004878,11.2660413 L23.004878,12.1891182 L18,12.1891182 L18,16.8045028 L23.004878,16.8045028 L23.004878,17.7275797 L18,17.7275797 L18,21.8814259 L17.0769231,21.8814259 L17.0769231,17.7275797 L12.4615385,17.7275797 L12.4615385,21.8814259 L11.5384615,21.8814259 L11.5384615,17.7275797 Z M12.4615385,16.8045028 L17.0769231,16.8045028 L17.0769231,12.1891182 L12.4615385,12.1891182 L12.4615385,16.8045028 Z M15.4507909,14.5364212 L16.5830004,15.6686308 L15.9302865,16.3213447 L14.7980769,15.1891352 L13.6658674,16.3213447 L13.0131534,15.6686308 L14.145363,14.5364212 L13.0131534,13.4042116 L13.6658674,12.7514977 L14.7980769,13.8837072 L15.9302865,12.7514977 L16.5830004,13.4042116 L15.4507909,14.5364212 Z M14.9853659,4.03902439 L14.9853659,2.51707317 L16.5073171,2.51707317 L16.5073171,4.03902439 L14.9853659,4.03902439 Z" id="Page-1"></path>
            </g>
        </g>
    </g>
</svg>