<?xml version="1.0" encoding="UTF-8"?>
<svg width="10px" height="10px" viewBox="0 0 10 10" version="1.1" xmlns="http://www.w3.org/2000/svg" xmlns:xlink="http://www.w3.org/1999/xlink">
    <g id="ui" stroke="none" stroke-width="1" fill="none" fill-rule="evenodd">
        <g id="v3__07.1__user-application__private" transform="translate(-1223.000000, -151.000000)" fill-rule="nonzero" fill="#FFFFFF">
            <g id="Group-2" transform="translate(1210.000000, 140.000000)">
                <g id="Group-15">
                    <path d="M20.6851828,12.152176 C20.8057322,11.954277 20.9818066,11.8245731 21.2018747,11.7739938 C21.41107,11.7259112 21.6192399,11.7503218 21.8171264,11.845074 C22.0270648,11.9715291 22.155578,12.1370354 22.216202,12.3443717 C22.2775085,12.5540505 22.255069,12.7646397 22.1443092,12.9757567 C22.0353273,13.1565613 22.0353273,13.1565613 21.4904081,14.0605908 C21.0543681,14.7839859 20.5722697,15.5808948 20.0440759,16.4513794 C19.5162467,17.3212569 19.0313565,18.1235844 18.5894151,18.8583451 C18.0051371,19.8297481 17.9064331,19.9919706 17.8568642,20.0389717 C17.686473,20.1858262 17.4837342,20.2575773 17.2607941,20.2493665 C17.035208,20.2410582 16.8380398,20.1509401 16.6996597,20.0020469 L13.9841452,17.6135423 C13.821387,17.4576816 13.7417963,17.2559258 13.7506714,17.0264308 C13.7595073,16.7979503 13.8556253,16.6007077 14.0209824,16.458639 C14.1814079,16.305012 14.3854312,16.2312019 14.6171993,16.2394217 C14.8483561,16.2476198 15.0489414,16.3372625 15.188155,16.4869928 L17.0635695,18.1411798 L20.6851828,12.152176 Z" id="checkmark-small"></path>
                </g>
            </g>
        </g>
    </g>
</svg>
