<?xml version="1.0" encoding="UTF-8" standalone="no"?>
<svg width="15px" height="15px" viewBox="0 0 15 15" version="1.1" xmlns="http://www.w3.org/2000/svg" xmlns:xlink="http://www.w3.org/1999/xlink">
    <!-- Generator: Sketch 46.2 (44496) - http://www.bohemiancoding.com/sketch -->
    <title>Page 1</title>
    <desc>Created with Sketch.</desc>
    <defs></defs>
    <g id="ui" stroke="none" stroke-width="1" fill="none" fill-rule="evenodd">
        <g id="v3__01.6__prospectus__login" transform="translate(-490.000000, -230.000000)" fill="#CECECE">
            <g id="Group-5" transform="translate(480.000000, 220.000000)">
                <path d="M24.8056989,22.6171875 C24.9093266,22.7213547 24.9611393,22.8515618 24.9611393,23.0078125 C24.9611393,23.1640632 24.9093266,23.2942703 24.8056989,23.3984375 L23.3290151,24.84375 C23.2253873,24.9479172 23.1088095,25 22.9792742,25 C22.8238338,25 22.694301,24.9479172 22.5906732,24.84375 L17.5000002,19.7265625 L12.4093271,24.84375 C12.3056996,24.9479172 12.1891206,25 12.0595862,25 C11.9041451,25 11.7746128,24.9479172 11.6709853,24.84375 L10.1943015,23.3984375 C10.090674,23.2942703 10.0388611,23.1640632 10.0388611,23.0078125 C10.0388611,22.8515618 10.090674,22.7213547 10.1943015,22.6171875 L15.3238346,17.5 L10.1943015,12.421875 C9.93523284,12.1614575 9.93523284,11.9010425 10.1943015,11.640625 L11.6321252,10.15625 C11.7875663,10.0520825 11.9170986,10 12.0207261,10 C12.1761673,10 12.3056996,10.0520825 12.4093271,10.15625 L17.5000002,15.234375 L22.5906732,10.15625 C22.7461136,10.0520825 22.8756464,10 22.9792742,10 C23.1347146,10 23.2642474,10.0520825 23.3678752,10.15625 L24.8056989,11.640625 C25.064767,11.9010425 25.064767,12.1484375 24.8056989,12.3828125 L19.6761657,17.4609375 L24.8056989,22.6171875 Z" id="Page-1"></path>
            </g>
        </g>
    </g>
</svg>