<?xml version="1.0" encoding="UTF-8" standalone="no"?>
<svg width="16px" height="16px" viewBox="0 0 16 16" version="1.1" xmlns="http://www.w3.org/2000/svg" xmlns:xlink="http://www.w3.org/1999/xlink">
    <!-- Generator: Sketch 46.2 (44496) - http://www.bohemiancoding.com/sketch -->
    <title>Page 1</title>
    <desc>Created with Sketch.</desc>
    <defs></defs>
    <g id="ui" stroke="none" stroke-width="1" fill="none" fill-rule="evenodd">
        <g id="v3__01.1__prospectus__closed" transform="translate(-7.000000, -697.000000)" fill="#FFFFFF">
            <g id="Group-6" transform="translate(0.000000, 690.000000)">
                <path d="M22.9637546,7.36245447 C22.8912637,7.21747268 22.7825273,7.10873634 22.6375455,7.03624545 C22.5650546,7.01208104 22.4925637,7 22.4200729,7 L17.7806557,7 C17.6115095,7 17.4725706,7.05436701 17.3638319,7.16310335 C17.2550956,7.27184201 17.2007286,7.41078095 17.2007286,7.57992714 C17.2007286,7.74907333 17.2550956,7.88801228 17.3638319,7.99675094 C17.4725706,8.10548728 17.6115095,8.15985429 17.7806557,8.15985429 L21.0065004,8.15985429 L16.2221015,12.9804987 C15.9321356,13.2463002 15.9260951,13.5181375 16.2039776,13.7960224 C16.4818625,14.0739049 16.7536998,14.0678644 17.0195013,13.7778985 L21.8401457,8.99349956 L21.8401457,12.2193443 C21.8401457,12.3884905 21.8945127,12.5274294 22.0032491,12.6361681 C22.1119877,12.7449044 22.2509267,12.7992714 22.4200729,12.7992714 C22.589219,12.7992714 22.728158,12.7449044 22.8368967,12.6361681 C22.945633,12.5274294 23,12.3884905 23,12.2193443 L23,7.57992714 C23,7.50743625 22.987919,7.43494536 22.9637546,7.36245447 Z M7.57992714,17.2007286 C7.41078095,17.2007286 7.27184131,17.2550956 7.16310451,17.3638319 C7.05436764,17.4725706 7,17.6115095 7,17.7806557 L7,22.4200729 C7,22.4925642 7.01208169,22.5650542 7.03624545,22.6375455 C7.0604092,22.7100369 7.10873597,22.7704453 7.18122723,22.8187728 C7.22955474,22.891264 7.28996311,22.9395908 7.36245447,22.9637546 C7.43494582,22.9879183 7.50743579,23 7.57992714,23 L12.2193443,23 C12.3884905,23 12.5274294,22.9456324 12.6361681,22.8368955 C12.7449044,22.7281587 12.7992714,22.589219 12.7992714,22.4200729 C12.7992714,22.2509267 12.7449044,22.111987 12.6361681,22.0032502 C12.5274294,21.8945134 12.3884905,21.8401457 12.2193443,21.8401457 L8.99349956,21.8401457 L13.7778985,17.0195013 C14.0678644,16.7536998 14.0739049,16.4818625 13.7960224,16.2039776 C13.5181375,15.9260951 13.2463002,15.9321356 12.9804987,16.2221015 L8.15985429,21.0065004 L8.15985429,17.7806557 C8.15985429,17.6115095 8.10548658,17.4725706 7.99674978,17.3638319 C7.88801298,17.2550956 7.74907333,17.2007286 7.57992714,17.2007286 Z" id="Page-1" transform="translate(15.000000, 15.000000) scale(-1, 1) translate(-15.000000, -15.000000) "></path>
            </g>
        </g>
    </g>
</svg>