<?xml version="1.0" encoding="utf-8"?>
<!-- Generator: Adobe Illustrator 16.0.0, SVG Export Plug-In . SVG Version: 6.00 Build 0)  -->
<!DOCTYPE svg PUBLIC "-//W3C//DTD SVG 1.1//EN" "http://www.w3.org/Graphics/SVG/1.1/DTD/svg11.dtd">
<svg version="1.1" id="Layer_1" xmlns="http://www.w3.org/2000/svg" xmlns:xlink="http://www.w3.org/1999/xlink" x="0px" y="0px"
	 width="40px" height="40px" viewBox="0 0 40 40" enable-background="new 0 0 40 40" xml:space="preserve">
<title>Path</title>
<desc>Created with Sketch.</desc>
<g id="ui">
	<g id="v3__01.6__prospectus__login" transform="translate(-860.000000, -250.000000)">
		<g id="Group-5" transform="translate(480.000000, 220.000000)">
			<g id="Path" transform="translate(380.000000, 30.000000)">
				<circle fill="none" stroke="#E87722" cx="20" cy="20" r="19.5"/>
				<defs>
					<filter id="Adobe_OpacityMaskFilter" filterUnits="userSpaceOnUse" x="6.872" y="7.5" width="25.628" height="32.5">
						<feColorMatrix  type="matrix" values="1 0 0 0 0  0 1 0 0 0  0 0 1 0 0  0 0 0 1 0"/>
					</filter>
				</defs>
				<mask maskUnits="userSpaceOnUse" x="6.872" y="7.5" width="25.628" height="32.5" id="mask-2_1_">
					<g filter="url(#Adobe_OpacityMaskFilter)">
						<circle id="path-1_1_" fill="#FFFFFF" cx="20" cy="20" r="20"/>
					</g>
				</mask>
				<path mask="url(#mask-2_1_)" fill="none" stroke="#E87722" stroke-linecap="round" stroke-linejoin="round" d="M7.372,35.484
					c0.261-0.133,2.518-1.326,2.844-1.426c0.327-0.099,0.653-0.215,0.979-0.347c0.327-0.133,0.637-0.249,0.931-0.348
					c0.294-0.1,0.604-0.183,0.931-0.248c0.979-0.331,1.779-0.612,2.4-0.844c0.62-0.231,1.094-0.446,1.42-0.646
					c0.327-0.199,0.539-0.414,0.637-0.646c0.098-0.231,0.147-0.513,0.147-0.844v-3.276l-1.371-0.198
					c-0.065,0-0.539-0.065-1.42-0.198s-1.714-0.199-2.498-0.199c-0.458,0-0.8-0.016-1.029-0.049s-0.473-0.116-0.734-0.248
					c0.326-0.662,0.62-1.373,0.881-2.135s0.522-1.572,0.784-2.432c0.261-0.861,0.49-1.705,0.686-2.532
					c0.196-0.827,0.327-1.638,0.392-2.432h0.098l0.098-2.184c0.065-0.861,0.277-1.688,0.637-2.482
					c0.359-0.794,0.833-1.456,1.42-1.985c0.588-0.596,1.273-1.042,2.057-1.34S19.26,8,20.109,8c0.915,0,1.747,0.149,2.498,0.447
					s1.421,0.745,2.009,1.34c0.587,0.529,1.076,1.191,1.469,1.985c0.392,0.794,0.588,1.621,0.588,2.482l0.195,2.184
					c0.131,0.794,0.294,1.605,0.49,2.432c0.195,0.828,0.424,1.671,0.686,2.532c0.195,0.859,0.44,1.67,0.734,2.432
					s0.571,1.473,0.832,2.135c-0.195,0.132-0.424,0.215-0.686,0.248c-0.261,0.033-0.587,0.049-0.979,0.049
					c-0.784,0-1.633,0.084-2.547,0.249s-1.404,0.281-1.469,0.347l-1.273,0.299v2.978c0,0.331,0.049,0.612,0.146,0.844
					s0.311,0.446,0.637,0.646s0.816,0.414,1.469,0.646c0.653,0.231,1.502,0.546,2.547,0.942c0.262,0.066,0.539,0.166,0.832,0.299
					c0.295,0.132,0.572,0.23,0.833,0.297c0.261,0.133,0.539,0.248,0.833,0.348c0.195,0.066,0.878,0.572,2.047,1.52l-2.791,1.948
					l-2.834,1.166L23,39.5h-3.314h-3.227l-3.5-1.041L7.372,35.484z"/>
			</g>
		</g>
	</g>
</g>
</svg>
