<?xml version="1.0" encoding="UTF-8" standalone="no"?>
<svg width="26px" height="26px" viewBox="0 0 26 26" version="1.1" xmlns="http://www.w3.org/2000/svg" xmlns:xlink="http://www.w3.org/1999/xlink">
    <!-- Generator: Sketch 46.2 (44496) - http://www.bohemiancoding.com/sketch -->
    <title>Page 1</title>
    <desc>Created with Sketch.</desc>
    <defs></defs>
    <g id="ui" stroke="none" stroke-width="1" fill="none" fill-rule="evenodd">
        <g id="v3__01.1__prospectus" transform="translate(-277.000000, -213.000000)" fill="#FFFFFF">
            <g id="Group-20" transform="translate(74.000000, 198.000000)">
                <g id="Group-15" transform="translate(188.000000, 1.000000)">
                    <path d="M28,14 L22.8364486,19.1877934 L22.8364486,17.1126761 L18.6448598,17.1126761 L18.6448598,23.3380282 L15,27 L15.728972,27.7323944 L28,15.4647887 L40.271028,27.7323944 L41,27 L28,14 Z M19.7383178,18.1502347 L21.8037383,18.1502347 L21.8037383,20.2253521 L19.7383178,22.3004695 L19.7383178,18.1502347 Z M18.6448598,27.5492958 L18.6448598,40 L25.9345794,40 L25.9345794,32.7370892 L30.0654206,32.7370892 L30.0654206,40 L37.3551402,40 L37.3551402,27.5492958 L28,18.1502347 L18.6448598,27.5492958 Z M36.2616822,38.9624413 L31.0981308,38.9624413 L31.0981308,31.6995305 L24.9018692,31.6995305 L24.9018692,38.9624413 L19.7383178,38.9624413 L19.7383178,27.9765258 L28,19.6150235 L36.2616822,27.9765258 L36.2616822,38.9624413 Z" id="Page-1"></path>
                </g>
            </g>
        </g>
    </g>
</svg>