<?xml version="1.0" encoding="UTF-8" standalone="no"?>
<svg width="26px" height="27px" viewBox="0 0 26 27" version="1.1" xmlns="http://www.w3.org/2000/svg" xmlns:xlink="http://www.w3.org/1999/xlink">
    <!-- Generator: Sketch 46.2 (44496) - http://www.bohemiancoding.com/sketch -->
    <title>Page 1</title>
    <desc>Created with Sketch.</desc>
    <defs></defs>
    <g id="ui" stroke="none" stroke-width="1" fill="none" fill-rule="evenodd">
        <g id="v3__01.1__prospectus" transform="translate(-277.000000, -308.000000)" fill="#FFFFFF">
            <g id="Group-20" transform="translate(74.000000, 198.000000)">
                <g id="Group-16" transform="translate(188.000000, 97.000000)">
                    <path d="M15,13.795122 L15,39.795122 L41,39.795122 L41,13.795122 L15,13.795122 Z M39.9219512,14.8731707 L39.9219512,19.7560976 L16.0780488,19.7560976 L16.0780488,14.8731707 L39.9219512,14.8731707 Z M16.0780488,38.7170732 L16.0780488,20.8341463 L39.9219512,20.8341463 L39.9219512,38.7170732 L16.0780488,38.7170732 Z M23.1170732,18.1707317 L24.7658537,18.1707317 L24.7658537,16.5219512 L23.1170732,16.5219512 L23.1170732,18.1707317 Z M31.2341463,18.1707317 L32.8829268,18.1707317 L32.8829268,16.5219512 L31.2341463,16.5219512 L31.2341463,18.1707317 Z M24.3219512,24.702439 C24.2373997,25.0406531 24.1422757,25.2943076 24.0365833,25.4634146 C23.930895,25.6325217 23.7934973,25.7593509 23.6243902,25.8439024 C23.4552832,25.9284539 23.2544709,25.9813001 23.0219492,26.002437 C22.7894316,26.0235779 22.5252046,26.0552832 22.2292683,26.097561 L22.0390244,26.097561 L22.0390244,26.9853659 L24.1317073,26.9853659 L24.1317073,33.0097561 L25.2731707,33.0097561 L25.2731707,24.5121951 L24.3219512,24.5121951 L24.3219512,24.702439 Z M30.6634146,27.2390244 C30.4097561,27.2390244 30.166666,27.2813022 29.9341484,27.3658537 C29.7016267,27.4504052 29.4796775,27.5560976 29.2682927,27.6829268 L29.6487805,25.7170732 L33.2,25.7170732 L33.2,24.6390244 L28.7609756,24.6390244 L27.9365854,29.204878 L28.8878049,29.204878 L28.9512195,29.1414634 C29.1203266,28.8455271 29.3528442,28.6235779 29.6487805,28.4756118 C29.9447168,28.3276416 30.2617859,28.2536585 30.6,28.2536585 C30.8536585,28.2536585 31.0967486,28.3065047 31.3292703,28.4121931 C31.5617879,28.5178855 31.7626003,28.6552832 31.9317073,28.8243902 C32.1008144,28.9934973 32.2276436,29.1943096 32.3121951,29.4268272 C32.3967466,29.6593489 32.4390244,29.902439 32.4390244,30.1560976 C32.4390244,30.4097561 32.4073191,30.6528462 32.3439045,30.8853679 C32.2804858,31.1178855 32.164229,31.3398347 31.995122,31.5512195 C31.8260149,31.7203266 31.6357751,31.8682927 31.4243902,31.995122 C31.2130054,32.1219512 30.9593509,32.1853659 30.6634146,32.1853659 C30.4097561,32.1853659 30.1772385,32.1430881 29.9658537,32.0585366 C29.7544688,31.9739851 29.564229,31.8471558 29.395122,31.6780488 C29.2260149,31.5512195 29.0991856,31.3821165 29.0146341,31.1707317 C28.9300827,30.9593469 28.8878049,30.7268293 28.8878049,30.4731707 L28.8878049,30.2829268 L27.7463415,30.2829268 L27.7463415,30.4731707 C27.7463415,30.8959363 27.8203245,31.2658516 27.9682907,31.5829248 C28.1162608,31.900002 28.3170732,32.1853659 28.5707317,32.4390244 C28.8243902,32.6926829 29.1203225,32.8829268 29.4585366,33.0097561 C29.7967507,33.1365854 30.1772344,33.2 30.6,33.2 C31.0227656,33.2 31.4138178,33.1154485 31.7731687,32.9463415 C32.1325237,32.7772344 32.4390244,32.5658537 32.6926829,32.3121951 C32.9886192,32.0585366 33.2105684,31.7520359 33.3585386,31.392685 C33.5065047,31.03333 33.5804878,30.6422778 33.5804878,30.2195122 C33.5804878,29.7967466 33.5170732,29.395122 33.3902439,29.0146341 C33.2634146,28.6341463 33.0731707,28.3170732 32.8195122,28.0634146 C32.5658537,27.8097561 32.259353,27.6089438 31.899998,27.4609776 C31.540647,27.3130075 31.128458,27.2390244 30.6634146,27.2390244 Z" id="Page-1"></path>
                </g>
            </g>
        </g>
    </g>
</svg>