<?xml version="1.0" encoding="UTF-8" standalone="no"?>
<svg width="26px" height="23px" viewBox="0 0 26 23" version="1.1" xmlns="http://www.w3.org/2000/svg" xmlns:xlink="http://www.w3.org/1999/xlink">
    <!-- Generator: Sketch 46.2 (44496) - http://www.bohemiancoding.com/sketch -->
    <title>Page 1</title>
    <desc>Created with Sketch.</desc>
    <defs></defs>
    <g id="ui" stroke="none" stroke-width="1" fill="none" fill-rule="evenodd">
        <g id="v3__01.1__prospectus" transform="translate(-277.000000, -406.000000)" fill="#FFFFFF">
            <g id="Group-20" transform="translate(74.000000, 198.000000)">
                <g id="Group-17" transform="translate(188.000000, 193.000000)">
                    <path d="M31.804878,17.6393443 L31.804878,15 L24.195122,15 L24.195122,17.6393443 L15,17.6393443 L15,38 L41,38 L41,17.6393443 L31.804878,17.6393443 Z M25.2731707,16.068306 L30.7268293,16.068306 L30.7268293,17.6393443 L25.2731707,17.6393443 L25.2731707,16.068306 Z M24.195122,18.7076503 L39.9219512,18.7076503 L39.9219512,27.3169399 L31.804878,27.3169399 L31.804878,25.1803279 L24.195122,25.1803279 L24.195122,27.3169399 L16.0780488,27.3169399 L16.0780488,18.7076503 L24.195122,18.7076503 Z M30.7268293,26.2486339 L30.7268293,29.4535519 L25.2731707,29.4535519 L25.2731707,26.2486339 L30.7268293,26.2486339 Z M16.0780488,36.931694 L16.0780488,28.3852459 L24.195122,28.3852459 L24.195122,30.5218579 L31.804878,30.5218579 L31.804878,28.3852459 L39.9219512,28.3852459 L39.9219512,36.931694 L16.0780488,36.931694 Z" id="Page-1"></path>
                </g>
            </g>
        </g>
    </g>
</svg>