<?xml version="1.0" encoding="UTF-8" standalone="no"?>
<svg width="29px" height="19px" viewBox="0 0 29 19" version="1.1" xmlns="http://www.w3.org/2000/svg" xmlns:xlink="http://www.w3.org/1999/xlink">
    <!-- Generator: Sketch 46.2 (44496) - http://www.bohemiancoding.com/sketch -->
    <title>Page 1</title>
    <desc>Created with Sketch.</desc>
    <defs></defs>
    <g id="ui" stroke="none" stroke-width="1" fill="none" fill-rule="evenodd">
        <g id="v3__01.1__prospectus" transform="translate(-276.000000, -505.000000)" fill="#FFFFFF">
            <g id="Group-20" transform="translate(74.000000, 198.000000)">
                <g id="Group-18" transform="translate(188.000000, 289.000000)">
                    <path d="M41.423913,18 L15.576087,18 C15.365941,18 15.1663052,18.0411269 14.9771739,18.1233766 C14.7880427,18.2056264 14.6094212,18.329003 14.4413043,18.4935065 C14.3152167,18.6168831 14.2101454,18.7813826 14.126087,18.987013 C14.0420286,19.1926433 14,19.3982658 14,19.6038961 L14,35.3961039 C14,35.6017327 14.0420286,35.8073583 14.126087,36.012987 C14.2101454,36.2186158 14.3152167,36.3831161 14.4413043,36.5064935 C14.6094212,36.6709965 14.7880427,36.7943719 14.9771739,36.8766234 C15.1663052,36.9588749 15.365941,37 15.576087,37 L41.423913,37 C41.6340607,37 41.8336936,36.9588749 42.0228241,36.8766234 C42.2119585,36.7943719 42.3905784,36.6709965 42.5586957,36.5064935 C42.6847826,36.3831161 42.7898564,36.2186158 42.873913,36.012987 C42.9579697,35.8073583 43,35.6017327 43,35.3961039 L43,19.6038961 C43,19.3982658 42.9579697,19.1926433 42.873913,18.987013 C42.7898564,18.7813826 42.6847826,18.6168831 42.5586957,18.4935065 C42.3905784,18.329003 42.2119585,18.2056264 42.0228241,18.1233766 C41.8336936,18.0411269 41.6340607,18 41.423913,18 Z M15.0717391,22.2564935 L41.9282609,22.2564935 L41.9282609,24.3538961 L15.0717391,24.3538961 L15.0717391,22.2564935 Z M41.9282609,35.3961039 C41.9282609,35.5194813 41.875724,35.6325752 41.7706502,35.7353896 C41.6655804,35.838204 41.55,35.8896104 41.423913,35.8896104 L15.576087,35.8896104 C15.4499992,35.8896104 15.3344208,35.838204 15.2293478,35.7353896 C15.1242748,35.6325752 15.0717391,35.5194813 15.0717391,35.3961039 L15.0717391,25.4025974 L41.9282609,25.4025974 L41.9282609,35.3961039 Z M15.0717391,21.2077922 L15.0717391,19.6038961 C15.0717391,19.4805195 15.1242748,19.3674236 15.2293478,19.2646084 C15.3344208,19.1617972 15.4499992,19.1103896 15.576087,19.1103896 L41.423913,19.1103896 C41.55,19.1103896 41.6655804,19.1617972 41.7706502,19.2646084 C41.875724,19.3674236 41.9282609,19.4805195 41.9282609,19.6038961 L41.9282609,21.2077922 L15.0717391,21.2077922 Z M17.2152174,33.7922078 L27.9326087,33.7922078 L27.9326087,32.7435065 L17.2152174,32.7435065 L17.2152174,33.7922078 Z M17.2152174,30.6461039 L23.6456522,30.6461039 L23.6456522,29.5974026 L17.2152174,29.5974026 L17.2152174,30.6461039 Z M36.5695652,33.7922078 L38.7130435,33.7922078 C39.0072477,33.7922078 39.2594176,33.6996761 39.4695652,33.5146104 C39.6797128,33.3295447 39.7847826,33.0930749 39.7847826,32.8051948 L39.7847826,32.7435065 C39.7847826,32.4556264 39.6797128,32.2088771 39.4695652,32.0032468 C39.2594176,31.7976164 39.0072477,31.6948052 38.7130435,31.6948052 L36.5695652,31.6948052 C36.275361,31.6948052 36.0231911,31.7976164 35.8130435,32.0032468 C35.6028959,32.2088771 35.4978261,32.4556264 35.4978261,32.7435065 L35.4978261,32.8051948 C35.4978261,33.0930749 35.6028959,33.3295447 35.8130435,33.5146104 C36.0231911,33.6996761 36.275361,33.7922078 36.5695652,33.7922078 Z" id="Page-1" transform="translate(28.500000, 27.500000) scale(-1, 1) translate(-28.500000, -27.500000) "></path>
                </g>
            </g>
        </g>
    </g>
</svg>