<?xml version="1.0" encoding="UTF-8" standalone="no"?>
<svg width="21px" height="32px" viewBox="0 0 21 32" version="1.1" xmlns="http://www.w3.org/2000/svg" xmlns:xlink="http://www.w3.org/1999/xlink">
    <!-- Generator: Sketch 46.2 (44496) - http://www.bohemiancoding.com/sketch -->
    <title>Page 1</title>
    <desc>Created with Sketch.</desc>
    <defs></defs>
    <g id="ui" stroke="none" stroke-width="1" fill="none" fill-rule="evenodd">
        <g id="v3__01.1__prospectus" transform="translate(-280.000000, -595.000000)" fill="#FFFFFF">
            <g id="Group-20" transform="translate(74.000000, 198.000000)">
                <g id="Group-19" transform="translate(188.000000, 385.000000)">
                    <path d="M28.5,13.0625 C29.8099481,13.0625 31.0380065,13.312496 32.1842105,13.8125 C33.3304146,14.312504 34.3333294,14.999996 35.1929825,15.875 C36.0116985,16.750004 36.6768999,17.770828 37.1885945,18.9375 C37.7002931,20.104172 37.9561404,21.35416 37.9561404,22.6875 C37.9561404,23.104168 37.9254406,23.520832 37.8640371,23.9375 C37.8026296,24.354168 37.7105263,24.75 37.5877193,25.125 C37.5058493,25.541668 37.3830422,25.947916 37.2192982,26.343752 C37.0555542,26.739584 36.8713476,27.104164 36.6666667,27.4375 L28.5,41.875 L20.3333333,27.4375 C20.1286539,27.104164 19.9444454,26.739584 19.7807018,26.343752 C19.6169581,25.947916 19.4941523,25.541668 19.4122807,25.125 C19.2894729,24.75 19.1973688,24.354168 19.1359649,23.9375 C19.074561,23.520832 19.0438596,23.104168 19.0438596,22.6875 C19.0438596,21.35416 19.299705,20.104172 19.8114035,18.9375 C20.323102,17.770828 20.9882999,16.750004 21.8070175,15.875 C22.6666706,14.999996 23.6695854,14.312504 24.8157895,13.8125 C25.9619935,13.312496 27.1900519,13.0625 28.5,13.0625 Z M28.5,26.375 C28.991232,26.375 29.4619857,26.281252 29.9122807,26.093752 C30.3625757,25.906248 30.7514594,25.645836 31.0789474,25.3125 C31.4064354,24.979164 31.672512,24.583336 31.877193,24.125 C32.081874,23.666664 32.1842105,23.187504 32.1842105,22.6875 C32.1842105,22.145832 32.081874,21.656252 31.877193,21.218752 C31.672512,20.781248 31.4064354,20.395836 31.0789474,20.0625 C30.7514594,19.6875 30.3625757,19.406252 29.9122807,19.218752 C29.4619857,19.031248 28.991232,18.9375 28.5,18.9375 C28.008768,18.9375 27.5380143,19.031248 27.0877193,19.218752 C26.6374243,19.406252 26.2485406,19.6875 25.9210526,20.0625 C25.5935646,20.395836 25.327488,20.781248 25.122807,21.218752 C24.918126,21.656252 24.8157895,22.145832 24.8157895,22.6875 C24.8157895,23.187504 24.918126,23.666664 25.122807,24.125 C25.327488,24.583336 25.5935646,24.979164 25.9210526,25.3125 C26.2485406,25.645836 26.6374243,25.906248 27.0877193,26.093752 C27.5380143,26.281252 28.008768,26.375 28.5,26.375 Z M28.5,12 C27.0672449,12 25.7163795,12.281248 24.4473684,12.843752 C23.1783573,13.406252 22.0526355,14.16666 21.0701754,15.125 C20.1286504,16.08334 19.3815817,17.208328 18.8289474,18.5 C18.276313,19.791672 18,21.187492 18,22.6875 C18,23.145836 18.0307014,23.61458 18.0921053,24.093752 C18.1535091,24.57292 18.2456134,25.041664 18.3684211,25.5 C18.4912289,25.916668 18.6447361,26.343748 18.8289474,26.781248 C19.0131587,27.218752 19.2076013,27.625 19.4122807,28 L28.5,44 L37.5877193,28 C37.7924003,27.625 37.9868401,27.218752 38.1710507,26.781248 C38.3552651,26.343748 38.5087719,25.916668 38.6315789,25.5 C38.754386,25.041664 38.8464893,24.57292 38.9078928,24.093752 C38.9693002,23.61458 39,23.145836 39,22.6875 C39,21.187492 38.7236862,19.791672 38.1710507,18.5 C37.6184191,17.208328 36.8713516,16.08334 35.9298246,15.125 C34.9473645,14.16666 33.8216427,13.406252 32.5526316,12.843752 C31.2836205,12.281248 29.9327551,12 28.5,12 Z M28.5,25.3125 C28.1315789,25.3125 27.7938616,25.25 27.4868401,25.125 C27.1798226,25 26.9035088,24.8125 26.6578947,24.5625 C26.4122807,24.3125 26.2178369,24.031252 26.0745634,23.718752 C25.9312859,23.406248 25.8596491,23.0625 25.8596491,22.6875 C25.8596491,22.3125 25.9312859,21.958336 26.0745634,21.625 C26.2178369,21.291664 26.4122807,21.020836 26.6578947,20.8125 C26.9035088,20.5625 27.1798226,20.364584 27.4868401,20.218752 C27.7938616,20.072916 28.1315789,20 28.5,20 C28.8684211,20 29.2061384,20.072916 29.5131599,20.218752 C29.8201774,20.364584 30.0964912,20.5625 30.3421053,20.8125 C30.5877193,21.020836 30.7821631,21.291664 30.9254366,21.625 C31.0687141,21.958336 31.1403509,22.3125 31.1403509,22.6875 C31.1403509,23.0625 31.0687141,23.406248 30.9254366,23.718752 C30.7821631,24.031252 30.5877193,24.3125 30.3421053,24.5625 C30.0964912,24.8125 29.8201774,25 29.5131599,25.125 C29.2061384,25.25 28.8684211,25.3125 28.5,25.3125 Z" id="Page-1"></path>
                </g>
            </g>
        </g>
    </g>
</svg>