
<svg width="26px" height="26px" viewBox="0 0 26 26" version="1.1" xmlns="http://www.w3.org/2000/svg" xmlns:xlink="http://www.w3.org/1999/xlink">
    <!-- Generator: Sketch 47 (45396) - http://www.bohemiancoding.com/sketch -->
    <desc>Created with Sketch.</desc>
    <defs></defs>
    <g id="ui" stroke="none" stroke-width="1" fill="none" fill-rule="evenodd">
        <g id="v3__06.1__user-application__private" transform="translate(-1081.000000, -1203.000000)" stroke="#4A90E2">
            <g id="Group-5" transform="translate(715.000000, 1159.000000)">
                <path d="M368.65063,67.1941477 L373.84355,61.9765102 L373.992478,62.0390621 L374.024758,62.1218609 L368.868839,67.3020477 L372.161745,57.2582184 L377.713755,54.2990292 L381.635968,58.1830004 L378.562673,63.7175507 L368.65063,67.1941477 Z M377.87297,62.8997332 L377.780694,63.0659084 L378.052334,62.8368225 L377.87297,62.8997332 Z M385.519806,45.2937677 L390.705062,50.4662242 L390.356029,50.8201973 L389.613455,51.573283 C389.116539,52.0772333 388.545523,52.6468386 387.900329,53.2821858 C387.258382,53.9143377 386.641147,54.5300507 386.048618,55.1293252 C385.448526,55.7362495 385.048716,56.1309166 384.865518,56.297013 C384.401505,56.7800072 383.640756,57.1105584 382.583838,57.317815 C381.377154,57.554441 381.377154,57.554441 381.135821,57.6017661 L380.874803,57.6529513 L378.369764,55.1540975 L378.419873,54.8933081 C378.467315,54.6463985 378.467315,54.6463985 378.704527,53.4118284 C378.911495,52.3346555 379.222326,51.5756949 379.687345,51.112487 C379.878176,50.9379914 380.270906,50.5543928 380.859755,49.966995 C381.45298,49.3752374 382.0669,48.7587244 382.701539,48.117431 C383.337715,47.4745848 383.907732,46.9018535 384.411735,46.3990955 C385.040864,45.7715214 385.040864,45.7715214 385.16669,45.6460076 L385.519806,45.2937677 Z" id="Page-1"></path>
            </g>
        </g>
    </g>
</svg>