
<svg width="16px" height="16px" viewBox="0 0 16 16" version="1.1" xmlns="http://www.w3.org/2000/svg" xmlns:xlink="http://www.w3.org/1999/xlink">
    <!-- Generator: Sketch 47 (45396) - http://www.bohemiancoding.com/sketch -->
    <desc>Created with Sketch.</desc>
    <defs></defs>
    <g id="ui" stroke="none" stroke-width="1" fill="none" fill-rule="evenodd">
        <g id="v3__07.1__user-application__private" transform="translate(-627.000000, -601.000000)" fill="#E87722">
            <path d="M635,601 C633.898272,601 632.85916,601.206572 631.882629,601.619717 C630.906098,602.032865 630.054777,602.6025 629.328638,603.328638 C628.6025,604.054777 628.032866,604.906098 627.619718,605.882629 C627.206571,606.85916 627,607.898272 627,609 C627,610.101728 627.206571,611.14084 627.619718,612.117371 C628.032866,613.093902 628.6025,613.945223 629.328638,614.671362 C630.054777,615.3975 630.906098,615.967134 631.882629,616.380282 C632.85916,616.793429 633.898272,617 635,617 C636.101728,617 637.14084,616.793429 638.117371,616.380282 C639.093902,615.967134 639.945223,615.3975 640.671362,614.671362 C641.3975,613.945223 641.967135,613.093902 642.380283,612.117371 C642.793428,611.14084 643,610.101728 643,609 C643,607.898272 642.793428,606.85916 642.380283,605.882629 C641.967135,604.906098 641.3975,604.054777 640.671362,603.328638 C639.945223,602.6025 639.093902,602.032865 638.117371,601.619717 C637.14084,601.206572 636.101728,601 635,601 Z M635,616.361502 C633.973392,616.361502 633.015654,616.167451 632.126759,615.779343 C631.237867,615.391234 630.455401,614.871678 629.779343,614.220657 C629.128322,613.544599 628.608766,612.762133 628.220657,611.873241 C627.832549,610.984346 627.638498,610.026608 627.638498,609 C627.638498,607.973392 627.832549,607.015654 628.220657,606.126759 C628.608766,605.237867 629.128322,604.455401 629.779343,603.779343 C630.455401,603.128322 631.237867,602.608766 632.126759,602.220656 C633.015654,601.832548 633.973392,601.638498 635,601.638498 C636.026608,601.638498 636.984346,601.832548 637.873241,602.220656 C638.762133,602.608766 639.544599,603.128322 640.220657,603.779343 C640.871678,604.455401 641.391234,605.237867 641.779344,606.126759 C642.167452,607.015654 642.361502,607.973392 642.361502,609 C642.361502,610.026608 642.167452,610.984346 641.779344,611.873241 C641.391234,612.762133 640.871678,613.544599 640.220657,614.220657 C639.544599,614.871678 638.762133,615.391234 637.873241,615.779343 C636.984346,616.167451 636.026608,616.361502 635,616.361502 Z M634.962441,604.793427 C634.561815,604.793427 634.205008,604.856023 633.89202,604.981221 C633.579029,605.106418 633.309859,605.28169 633.084507,605.507042 C632.884192,605.732394 632.727701,606.001565 632.615025,606.314555 C632.502346,606.627543 632.433491,606.98435 632.408451,607.384977 L633.122066,607.384977 C633.122066,607.109545 633.159624,606.846636 633.234742,606.596244 C633.309859,606.345852 633.422535,606.133021 633.57277,605.957746 C633.723005,605.782472 633.910798,605.644758 634.13615,605.544601 C634.361502,605.444444 634.624411,605.394366 634.924883,605.394366 C635.150235,605.394366 635.363066,605.431925 635.56338,605.507042 C635.763695,605.58216 635.926446,605.682315 636.051643,605.807512 C636.201878,605.957746 636.320813,606.1205 636.40845,606.295775 C636.496088,606.471049 636.539906,606.671362 636.539906,606.896714 C636.539906,607.046948 636.521128,607.190924 636.483567,607.328637 C636.446008,607.466353 636.40219,607.585289 636.352113,607.685446 C636.276995,607.810643 636.195619,607.929576 636.10798,608.042255 C636.020344,608.154931 635.926448,608.261345 635.826291,608.361502 C635.600939,608.561817 635.419405,608.737089 635.281689,608.887324 C635.143975,609.037559 635.02504,609.200312 634.924883,609.375587 C634.849765,609.525822 634.793428,609.701094 634.755867,609.901408 C634.718309,610.101723 634.687012,610.339592 634.661972,610.615023 L635.413146,610.615023 C635.413146,610.364631 635.419405,610.170579 635.431924,610.032863 C635.444445,609.895149 635.475744,609.763695 635.525822,609.638498 C635.575899,609.53834 635.657276,609.425667 635.769954,609.300469 C635.88263,609.175272 636.051643,609 636.276995,608.774648 C636.42723,608.649451 636.558684,608.517996 636.671363,608.38028 C636.784039,608.242567 636.890453,608.098592 636.99061,607.948357 C637.065728,607.798122 637.128326,607.635369 637.178404,607.460094 C637.228481,607.284819 637.253521,607.084507 637.253521,606.859155 C637.253521,606.533646 637.190925,606.245697 637.065728,605.995305 C636.94053,605.744913 636.777779,605.532082 636.577465,605.356808 C636.37715,605.181533 636.139282,605.043819 635.86385,604.943662 C635.588418,604.843505 635.287951,604.793427 634.962441,604.793427 Z M635,611.892019 C634.824725,611.892019 634.674493,611.954615 634.549296,612.079812 C634.424099,612.205009 634.361502,612.355242 634.361502,612.530516 C634.361502,612.705791 634.424099,612.856023 634.549296,612.981221 C634.674493,613.106418 634.824725,613.169014 635,613.169014 C635.175275,613.169014 635.325507,613.106418 635.450704,612.981221 C635.575901,612.856023 635.638498,612.705791 635.638498,612.530516 C635.638498,612.355242 635.575901,612.205009 635.450704,612.079812 C635.325507,611.954615 635.175275,611.892019 635,611.892019 Z" id="Page-1"></path>
        </g>
    </g>
</svg>