<?xml version="1.0" encoding="UTF-8" standalone="no"?>
<svg width="13px" height="17px" viewBox="0 0 13 17" version="1.1" xmlns="http://www.w3.org/2000/svg" xmlns:xlink="http://www.w3.org/1999/xlink">
    <!-- Generator: Sketch 46.2 (44496) - http://www.bohemiancoding.com/sketch -->
    <title>Page 1</title>
    <desc>Created with Sketch.</desc>
    <defs></defs>
    <g id="ui" stroke="none" stroke-width="1" fill="none" fill-rule="evenodd">
        <g id="v3__01.1__prospectus" transform="translate(-167.000000, -66.000000)" fill="#FA8833">
            <g id="Group-12" transform="translate(30.000000, 50.000000)">
                <path d="M148,24 L148,20 C148,18.0458374 145.997009,16 143.5,16 C141.002991,16 139,18.0673218 139,20 L139,24 L137,24 L137,33 L150,33 L150,24 L148,24 Z M140,20 C140,18.562561 141.561157,17 143.5,17 C145.438843,17 147,18.5966797 147,20 L147,24 L140,24 L140,20 Z M149,32 L138,32 L138,25 L149,25 L149,32 Z" id="Page-1"></path>
            </g>
        </g>
    </g>
</svg>