<?xml version="1.0" encoding="UTF-8"?>
<svg width="24px" height="24px" viewBox="0 0 24 24" version="1.1" xmlns="http://www.w3.org/2000/svg" xmlns:xlink="http://www.w3.org/1999/xlink">
    <!-- Generator: Sketch 47.1 (45422) - http://www.bohemiancoding.com/sketch -->
    <title>pen</title>
    <desc>Created with Sketch.</desc>
    <defs></defs>
    <g id="ui" stroke="none" stroke-width="1" fill="none" fill-rule="evenodd">
        <g id="z" transform="translate(-240.000000, -520.000000)" fill="#4A90E2">
            <g id="pen" transform="translate(240.000000, 520.000000)">
                <g id="Group-5">
                    <path d="M10.0887646,9.96671411 C10.1209558,9.79917465 10.1615394,9.58795738 10.2135084,9.31748388 C10.4376766,8.15079469 10.7829374,7.30776473 11.3499382,6.74349246 C11.5335787,6.57557267 11.9230004,6.1952049 12.5066394,5.6130039 C13.0990888,5.02202052 13.7122506,4.4062687 14.3461467,3.76572623 C14.98304,3.12215523 15.5538044,2.54867299 16.0586185,2.04510534 C16.6877487,1.41753018 16.6877487,1.41753018 16.8135758,1.29201526 L17.5198083,0.587535487 L23.4101236,6.46331097 L22.7120588,7.17125726 L21.9694844,7.924343 C21.4707282,8.43015914 20.8980023,9.00147014 20.2511537,9.63844653 C19.6107673,10.2690626 18.995105,10.8832063 18.4041669,11.4808718 C17.7980603,12.0938787 17.3944678,12.4922804 17.2260854,12.6434103 C16.6775986,13.2143343 15.8285356,13.5832583 14.6800535,13.8084703 C14.4370299,13.8561263 14.2429508,13.8941844 14.0859874,13.9249643 L14.2570857,14.0943944 L10.907525,20.1264595 L0.15625,23.90625 L3.7492316,12.9114984 L9.80374827,9.68447666 L10.0887644,9.96671388 Z M4.57425743,13.6049383 L2,21.4567901 L5.44059564,18 C5.32508198,17.7037037 5.28795248,17.3415648 5.32920713,16.9135802 C5.37046178,16.4855957 5.51485149,16.1481497 5.76237624,15.901233 C6.0759097,15.5720138 6.46782099,15.411524 6.9381196,15.4197539 C7.40841822,15.4279838 7.8003295,15.5967068 8.11386297,15.9259259 C8.44389703,16.2386852 8.61303762,16.6337438 8.62128792,17.1111111 C8.62953822,17.5884784 8.47689822,17.983537 8.16336475,18.2962963 C7.91584,18.5432099 7.56518337,18.6831281 7.11138535,18.716051 C6.65758733,18.7489707 6.2739295,18.699588 5.96039604,18.5678997 L2.54455446,22 L10.2178218,19.308642 L13.0148499,14.2716065 L9.62376238,10.9135818 L4.57425743,13.6049383 Z M7.03902593,17.7186723 C7.26829389,17.702039 7.39301802,17.6522722 7.45713256,17.588316 C7.57411948,17.4716179 7.62508925,17.3396993 7.62143724,17.1283914 C7.6177652,16.9159252 7.55837805,16.7772156 7.3897156,16.6155712 C7.26253476,16.4820276 7.1258718,16.4231925 6.92062292,16.4196008 C6.72738266,16.4162192 6.60521637,16.4662474 6.46861296,16.6092088 C6.39583416,16.6818088 6.34465349,16.8014214 6.32459346,17.0095284 C6.29740412,17.2915964 6.31869898,17.4992941 6.37229478,17.6367691 L6.3809445,17.6589559 C6.53561537,17.7152928 6.75353289,17.7393828 7.03902593,17.7186723 Z M17.5198036,2 C17.5198036,2 17.2681537,2.25102538 16.7648507,2.75308563 C16.2615477,3.25514588 15.6922487,3.82715733 15.0569315,4.4691358 C14.4216143,5.11111427 13.8069323,5.72839348 13.2128697,6.32098607 C12.6188103,6.91358183 12.2227739,7.30041047 12.0247509,7.48148148 C11.6617156,7.84362351 11.3853149,8.5185122 11.1955453,9.50617284 C11.0057758,10.4938335 10.9108911,10.9876543 10.9108911,10.9876543 L13.039604,13.1111111 C13.039604,13.1111111 13.5222717,13.0164606 14.487623,12.8271597 C15.4529743,12.6378588 16.1254115,12.3456806 16.5049505,11.9506157 C16.7029703,11.7695479 17.0990067,11.3786042 17.6930693,10.7777786 C18.2871319,10.1769529 18.9059358,9.55967368 19.5495034,8.92592514 C20.1930741,8.29217659 20.7623731,7.72428326 21.2574257,7.22222301 L22,6.46913738 L17.5198036,2 Z" id="Combined-Shape"></path>
                </g>
            </g>
        </g>
    </g>
</svg>