<?xml version="1.0" encoding="UTF-8"?>
<svg width="23px" height="20px" viewBox="0 0 23 20" version="1.1" xmlns="http://www.w3.org/2000/svg" xmlns:xlink="http://www.w3.org/1999/xlink">
    <!-- Generator: Sketch 47.1 (45422) - http://www.bohemiancoding.com/sketch -->
    <title>Group 4</title>
    <desc>Created with Sketch.</desc>
    <defs></defs>
    <g id="ui" stroke="none" stroke-width="1" fill="none" fill-rule="evenodd">
        <g id="z" transform="translate(-300.000000, -431.000000)" fill="#FA8833">
            <g id="Group-4" transform="translate(300.000000, 431.000000)">
                <path d="M19.568306,10.2790179 L18.2280027,10.2790179 L18.2280027,2.74107143 C18.2280027,1.98441785 17.9662281,1.33841584 17.4426681,0.803048955 C16.9191108,0.26767933 16.2873588,0 15.5473961,0 L7.50557625,0 C6.76561356,0 6.1338616,0.26767933 5.61030428,0.803048955 C5.08674428,1.33841584 4.82496964,1.98441785 4.82496964,2.74107143 C4.82496964,2.74107143 4.82496964,3.11225362 4.82496964,3.8546317 C4.82496964,4.59700978 4.82496964,5.42503263 4.82496964,6.33872768 C4.82496964,7.25242272 4.82496964,8.10899932 4.82496964,8.90848214 C4.82496964,9.70796496 4.82496964,10.1648056 4.82496964,10.2790179 L3.48466633,10.2790179 C2.74470363,10.2790179 2.11295221,10.5466972 1.58939381,11.0820668 C1.06583507,11.6174337 0.80405971,12.2634357 0.80405971,13.0200893 L0.80405971,14.390625 C0.80405971,15.1472786 1.06583507,15.7932806 1.58939381,16.3286475 C2.11295221,16.8640163 2.74470363,17.1316964 3.48466633,17.1316964 L4.92967949,17.1316964 C5.06929621,17.7170322 5.37644547,18.2059947 5.85113802,18.5985978 C6.32583324,18.9912013 6.8773064,19.1875 7.50557625,19.1875 L15.5473961,19.1875 C16.175666,19.1875 16.7271391,18.9912013 17.2018343,18.5985978 C17.6765269,18.2059947 17.9836762,17.7170322 18.1232929,17.1316964 L19.568306,17.1316964 C20.3082687,17.1316964 20.9400207,16.8640163 21.463578,16.3286475 C21.987138,15.7932806 22.2489127,15.1472786 22.2489127,14.390625 L22.2489127,13.0200893 C22.2489127,12.2634357 21.987138,11.6174337 21.463578,11.0820668 C20.9400207,10.5466972 20.3082687,10.2790179 19.568306,10.2790179 Z M6.16527295,2.74107143 C6.16527295,2.36988376 6.29790668,2.04866582 6.56317683,1.77741487 C6.8284443,1.50616119 7.14257655,1.37053571 7.50557625,1.37053571 L15.5473961,1.37053571 C15.9103958,1.37053571 16.2245281,1.50616119 16.4897955,1.77741487 C16.7550657,2.04866582 16.8876994,2.36988376 16.8876994,2.74107143 L16.8876994,10.2790179 L6.16527295,10.2790179 L6.16527295,2.74107143 Z M15.5473961,17.8169643 L7.50557625,17.8169643 C7.14257655,17.8169643 6.8284443,17.6813396 6.56317683,17.4100865 C6.29790668,17.1388334 6.16527295,16.8176171 6.16527295,16.4464286 C6.16527295,16.0752409 6.29790668,15.754023 6.56317683,15.482772 C6.8284443,15.2115183 7.14257655,15.0758929 7.50557625,15.0758929 L15.5473961,15.0758929 C15.9103958,15.0758929 16.2245281,15.2115183 16.4897955,15.482772 C16.7550657,15.754023 16.8876994,16.0752409 16.8876994,16.4464286 C16.8876994,16.8176171 16.7550657,17.1388334 16.4897955,17.4100865 C16.2245281,17.6813396 15.9103958,17.8169643 15.5473961,17.8169643 Z M20.9086093,14.390625 C20.9086093,14.7618127 20.7759756,15.0830306 20.5107055,15.3542816 C20.245438,15.6255352 19.9313057,15.7611607 19.568306,15.7611607 L18.1232929,15.7611607 C17.9836762,15.1758241 17.6765269,14.6868636 17.2018343,14.2942599 C16.7271391,13.9016562 16.175666,13.7053571 15.5473961,13.7053571 L7.50557625,13.7053571 C6.8773064,13.7053571 6.32583324,13.9016562 5.85113802,14.2942599 C5.37644547,14.6868636 5.06929621,15.1758241 4.92967949,15.7611607 L3.48466633,15.7611607 C3.12166582,15.7611607 2.80753518,15.6255352 2.54226556,15.3542816 C2.27699595,15.0830306 2.14436302,14.7618127 2.14436302,14.390625 L2.14436302,13.0200893 C2.14436302,12.6489016 2.27699595,12.3276837 2.54226556,12.0564327 C2.80753518,11.785179 3.12166582,11.6495536 3.48466633,11.6495536 L19.568306,11.6495536 C19.9313057,11.6495536 20.245438,11.785179 20.5107055,12.0564327 C20.7759756,12.3276837 20.9086093,12.6489016 20.9086093,13.0200893 L20.9086093,14.390625 Z" id="Page-1"></path>
            </g>
        </g>
    </g>
</svg>