<?xml version="1.0" encoding="UTF-8" standalone="no"?>
<svg width="8px" height="14px" viewBox="0 0 8 14" version="1.1" xmlns="http://www.w3.org/2000/svg" xmlns:xlink="http://www.w3.org/1999/xlink">
    <!-- Generator: Sketch 46.2 (44496) - http://www.bohemiancoding.com/sketch -->
    <title>Page 1 Copy</title>
    <desc>Created with Sketch.</desc>
    <defs></defs>
    <g id="ui" stroke="none" stroke-width="1" fill="none" fill-rule="evenodd">
        <g id="v3__09.1__user-application__private" transform="translate(-1092.000000, -2243.000000)" fill="#FA8833">
            <g id="Group-13-Copy-3" transform="translate(950.000000, 2225.000000)">
                <path d="M144.677042,24.988574 L149.875485,30.410743 C150.041505,30.5769404 150.041505,30.7431357 149.875485,30.9093332 L148.941633,31.8753518 C148.775614,32.0415494 148.609598,32.0415494 148.443579,31.8753518 L142.093385,25.2378691 C142.031128,25.1755454 142,25.0924483 142,24.988574 C142,24.8846997 142.031128,24.8016027 142.093385,24.7392789 L148.443579,18.1017962 C148.588845,17.9563734 148.754863,17.96676 148.941633,18.1329581 L149.875485,19.0678148 C150.041505,19.2340129 150.041505,19.400207 149.875485,19.5664051 L144.677042,24.988574 Z" id="Page-1-Copy" transform="translate(146.000000, 25.000000) rotate(-180.000000) translate(-146.000000, -25.000000) "></path>
            </g>
        </g>
    </g>
</svg>