
<svg width="80px" height="80px" viewBox="0 0 80 80" version="1.1" xmlns="http://www.w3.org/2000/svg" xmlns:xlink="http://www.w3.org/1999/xlink">
    <g id="ui" stroke="none" stroke-width="1" fill="none" fill-rule="evenodd">
        <g id="v3__05.1__approved-registration" transform="translate(-660.000000, -210.000000)">
            <g id="Group" transform="translate(660.000000, 210.000000)">
                <circle id="Oval" stroke="#00A768" stroke-width="2" cx="40" cy="40" r="39"></circle>
                <path d="M51.9584639,28.4815411 C52.499232,28.8988779 52.8320102,29.451844 52.9568025,30.1404515 C53.0815948,30.8290551 52.9360051,31.465487 52.5200294,32.0497593 L39.6040243,50.9550557 C39.1880486,51.4975943 38.6576872,51.8314595 38.0129202,51.9566608 C37.3681572,52.0818621 36.7753997,51.9357961 36.2346317,51.5184586 C35.9018495,51.2680561 35.0283112,50.3812269 33.6139929,48.857945 C32.1996747,47.3346619 30.8685683,45.8635684 29.6206387,44.4446225 L27.6863578,42.3162116 C27.2287836,41.8154051 27,41.2102753 27,40.5008024 C27,39.7913294 27.2495822,39.1861997 27.7487539,38.6853931 C28.2479256,38.1845866 28.830284,37.944622 29.4958464,37.9654874 C30.1614088,37.9863569 30.7229686,38.2680563 31.1805427,38.8105938 L37.3577625,45.5088279 L48.5890713,29.044944 C49.005047,28.5024065 49.5354084,28.1685395 50.1801754,28.0433388 C50.8249384,27.9181382 51.4176959,28.0642043 51.9584639,28.4815411 Z" id="Page-1" fill="#00A768"></path>
            </g>
        </g>
    </g>
</svg>
