<?xml version="1.0" encoding="UTF-8" standalone="no"?>
<svg width="19px" height="17px" viewBox="0 0 19 17" version="1.1" xmlns="http://www.w3.org/2000/svg" xmlns:xlink="http://www.w3.org/1999/xlink">
    <!-- Generator: Sketch 46.2 (44496) - http://www.bohemiancoding.com/sketch -->
    <title>Page 1 Copy</title>
    <desc>Created with Sketch.</desc>
    <defs></defs>
    <g id="ui" stroke="none" stroke-width="1" fill="none" fill-rule="evenodd">
        <g id="v3__06.1__user-application__private" transform="translate(-491.000000, -755.000000)" fill="#FA8833">
            <g id="Group-6" transform="translate(365.000000, 740.000000)">
                <path d="M133.12794,19.4506579 L135.32115,17.1710526 L135.32115,25.4210526 C135.32115,25.5778524 135.387293,25.7135415 135.519584,25.8281244 C135.651872,25.9427097 135.808528,26 135.989557,26 C136.170586,26 136.327241,25.9427097 136.45953,25.8281244 C136.591821,25.7135415 136.657964,25.5778524 136.657964,25.4210526 L136.657964,17.1529617 L138.872063,19.4506579 C138.997389,19.5712735 139.154045,19.6315789 139.342036,19.6315789 C139.530027,19.6315789 139.686683,19.5712735 139.812012,19.4506579 C139.937338,19.3421053 140,19.2064162 140,19.0435861 C140,18.880756 139.937338,18.7450669 139.812012,18.636512 L136.511749,15.1628278 C136.442125,15.1025223 136.362055,15.0603078 136.271542,15.0361842 C136.181026,15.0120606 136.093997,15 136.010443,15 C135.912968,15 135.818974,15.0120606 135.728461,15.0361842 C135.637945,15.0603078 135.557878,15.1025223 135.488251,15.1628278 L132.187991,18.636512 C132.062665,18.7450669 132,18.880756 132,19.0435861 C132,19.2064162 132.062665,19.3421053 132.187991,19.4506579 C132.313317,19.5712735 132.469973,19.6315789 132.657964,19.6315789 C132.845955,19.6315789 133.002611,19.5712735 133.12794,19.4506579 Z M144.366667,25 C144.195137,25 144.046702,25.0692692 143.921355,25.2078132 C143.796005,25.3463544 143.733333,25.5104148 143.733333,25.7 L143.733333,30.6 L127.266667,30.6 L127.266667,25.7 C127.266667,25.5104148 127.203994,25.3463544 127.078646,25.2078132 C126.953298,25.0692692 126.804862,25 126.633333,25 C126.461805,25 126.313369,25.0692692 126.188021,25.2078132 C126.062673,25.3463544 126,25.5104148 126,25.7 L126,31.3 C126,31.4895844 126.062673,31.653645 126.188021,31.7921875 C126.313369,31.9307298 126.461805,32 126.633333,32 L144.366667,32 C144.538196,32 144.686632,31.9307298 144.811979,31.7921875 C144.937328,31.653645 145,31.4895844 145,31.3 L145,25.7 C145,25.5104148 144.937328,25.3463544 144.811979,25.2078132 C144.686632,25.0692692 144.538196,25 144.366667,25 Z" id="Page-1-Copy"></path>
            </g>
        </g>
    </g>
</svg>